<svg width="21" height="20" viewBox="0 0 21 20" fill="none" xmlns="http://www.w3.org/2000/svg">
<path d="M16.9876 8.56255L10.6902 2.88286C10.5741 2.77745 10.2652 2.50024 10.2652 2.50024C10.2652 2.50024 9.95617 2.77745 9.84009 2.88286L3.54274 8.56255C3.47937 8.62194 3.33807 8.74558 3.33807 8.74558C3.33807 8.74558 3.33948 8.93699 3.33807 9.02348V16.25C3.33807 16.4158 3.33807 16.875 3.33807 16.875C3.33807 16.875 3.80079 16.875 3.96781 16.875H16.5625C16.7295 16.875 17.1922 16.875 17.1922 16.875C17.1922 16.875 17.1922 16.4158 17.1922 16.25V9.02348C17.1908 8.93699 17.1922 8.74923 17.1922 8.74923C17.1922 8.74923 17.0509 8.62194 16.9876 8.56255Z" stroke="#FF5F00" stroke-linecap="round"/>
</svg>
